<?xml version="1.0" encoding="iso-8859-1"?>
<!-- Generator: Adobe Illustrator 19.0.0, SVG Export Plug-In . SVG Version: 6.00 Build 0)  -->
<svg version="1.1" id="Layer_1" xmlns="http://www.w3.org/2000/svg" xmlns:xlink="http://www.w3.org/1999/xlink" x="0px" y="0px"
	 viewBox="0 0 512 512" style="enable-background:new 0 0 512 512;" xml:space="preserve">
<path style="fill:#134A79;" d="M222.609,407.04c93.217-80.284,270.358-53.994,270.358-53.994C454.734,446.308,363.041,512,256,512
	L222.609,407.04z"/>
<path style="fill:#1D71B8;" d="M256,407.04V512c-21.649,0-42.663-2.682-62.742-7.747C207.137,461.223,229.532,429.846,256,407.04z"
	/>
<path style="fill:#092339;" d="M256,0c130.07,0,237.479,97.002,253.841,222.609c-96.467,26.746-227.005,23.352-298.362,7.368L256,0z
	"/>
<g>
	<path style="fill:#134A79;" d="M256,0v229.977C119.841,199.48,37.098,123.181,37.098,123.181C82.009,49.33,163.239,0,256,0z"/>
	<path style="fill:#134A79;" d="M509.841,222.609C511.265,233.539,512,244.68,512,256c0,11.32-0.735,22.461-2.159,33.391
		C383.288,289.67,319.644,314.568,256,339.467L211.478,256L256,172.533C319.644,197.432,383.288,222.33,509.841,222.609z"/>
</g>
<path style="fill:#1D71B8;" d="M256,172.533v166.934c-57.5,22.506-114.989,45.011-218.902,49.352
	c-13.267-21.827-23.363-45.791-29.651-71.268V194.449c6.289-25.478,16.384-49.441,29.651-71.268
	C141.011,127.521,198.5,150.027,256,172.533z"/>
<g>
	<path style="fill:#092339;" d="M33.391,189.217c36.886,0,66.783,29.896,66.783,66.783s-29.896,66.783-66.783,66.783
		c-9.205,0-17.965-1.859-25.945-5.231C2.582,297.839,0,277.226,0,256s2.582-41.839,7.446-61.551
		C15.416,191.076,24.198,189.217,33.391,189.217z"/>
	<path style="fill:#092339;" d="M509.841,289.391c-2.894,22.239-8.648,43.587-16.874,63.655
		C372.602,385.725,325.053,430.57,256,471.819l-33.391-64.779L256,339.467C319.644,314.568,383.288,289.67,509.841,289.391z"/>
</g>
<g>
	<path style="fill:#134A79;" d="M256,339.467v132.352c-18.71,11.175-39.001,22.094-62.742,32.434
		C127.31,487.647,71.524,445.44,37.098,388.819C141.011,384.479,198.5,361.973,256,339.467z"/>
	<rect x="150.261" y="239.304" style="fill:#134A79;" width="33.391" height="33.391"/>
</g>
<rect x="339.478" y="96.835" style="fill:#1D71B8;" width="33.391" height="33.391"/>
<g>
</g>
<g>
</g>
<g>
</g>
<g>
</g>
<g>
</g>
<g>
</g>
<g>
</g>
<g>
</g>
<g>
</g>
<g>
</g>
<g>
</g>
<g>
</g>
<g>
</g>
<g>
</g>
<g>
</g>
</svg>
