<?xml version="1.0" standalone="no"?>
<!DOCTYPE svg PUBLIC "-//W3C//DTD SVG 20010904//EN"
 "http://www.w3.org/TR/2001/REC-SVG-20010904/DTD/svg10.dtd">
<svg version="1.0" xmlns="http://www.w3.org/2000/svg"
 width="400.000000pt" height="600.000000pt" viewBox="0 0 400.000000 600.000000"
 preserveAspectRatio="xMidYMid meet">
<metadata>
Created by potrace 1.13, written by Peter Selinger 2001-2015
</metadata>
<g transform="translate(0.000000,600.000000) scale(0.100000,-0.100000)"
fill="#000000" stroke="none">
<path d="M868 4951 l-33 -36 39 35 c21 19 33 26 26 15 -17 -29 -88 -77 -102
-69 -7 5 -8 3 -3 -6 6 -9 4 -12 -7 -8 -10 4 -14 0 -13 -15 1 -12 8 -22 15 -22
7 0 15 -6 18 -14 3 -9 0 -11 -9 -5 -12 7 -12 5 0 -9 16 -20 26 -23 15 -4 -5 8
-2 8 9 -2 20 -16 23 -36 5 -25 -9 5 -9 2 1 -9 16 -20 26 -23 15 -4 -5 8 -2 8
9 -2 18 -14 24 -36 7 -26 -16 10 -11 -1 7 -16 15 -12 16 -12 8 1 -8 13 -7 13
8 1 18 -14 24 -36 7 -26 -16 10 -11 -1 7 -16 15 -12 16 -12 8 1 -8 13 -7 13 8
1 20 -16 23 -36 5 -25 -9 5 -9 2 1 -9 16 -20 26 -23 15 -4 -5 8 -2 8 9 -2 20
-16 23 -36 5 -25 -9 5 -9 2 1 -9 15 -19 26 -23 15 -5 -5 7 -3 8 5 4 7 -5 10
-14 8 -20 -7 -17 30 -13 46 4 9 11 8 11 -8 0 -20 -15 -20 -14 -1 8 19 22 43
31 31 12 -10 -16 1 -11 16 7 12 14 12 16 -1 9 -8 -4 -2 4 15 18 16 14 36 25
44 23 10 -1 15 8 15 28 0 19 -5 30 -14 30 -7 0 -15 6 -18 14 -3 9 0 11 9 5 12
-7 12 -5 0 9 -16 20 -26 23 -15 5 5 -9 2 -9 -9 1 -20 16 -23 36 -4 25 8 -5 8
-2 -2 9 -16 20 -26 23 -15 5 5 -9 2 -9 -9 1 -20 16 -23 36 -4 25 8 -5 8 -2 -2
9 -16 20 -26 23 -15 5 5 -9 2 -9 -9 1 -20 16 -23 36 -4 25 8 -5 8 -2 -2 9 -16
20 -26 23 -15 5 5 -9 2 -9 -9 1 -18 14 -24 36 -7 26 16 -10 11 1 -7 16 -15 12
-16 12 -8 -1 8 -13 7 -13 -8 -1 -20 16 -23 36 -4 25 6 -4 4 1 -5 11 -27 29
-54 25 -90 -14z"/>
<path d="M3087 4974 c2 -7 -1 -15 -8 -20 -8 -4 -10 -3 -5 4 11 18 0 14 -15 -5
-10 -11 -10 -14 -1 -9 18 11 15 -9 -5 -25 -15 -12 -16 -12 -8 1 8 13 7 13 -8
1 -18 -15 -23 -26 -7 -16 17 10 11 -12 -7 -26 -11 -10 -14 -10 -9 -1 11 18 1
15 -15 -5 -10 -11 -10 -14 -1 -9 18 11 15 -9 -5 -25 -15 -12 -16 -12 -8 1 8
13 7 13 -8 1 -18 -15 -23 -26 -7 -16 17 10 11 -12 -7 -26 -11 -10 -14 -10 -9
-1 11 18 1 15 -15 -5 -10 -11 -10 -14 -1 -9 18 11 15 -9 -5 -25 -15 -12 -16
-12 -8 1 8 13 7 13 -8 1 -19 -15 -23 -26 -6 -15 7 4 10 1 7 -7 -3 -8 -10 -14
-15 -14 -6 0 -15 -4 -20 -9 -5 -5 -3 -6 5 -2 7 4 12 1 13 -8 3 -37 5 -41 20
-39 8 2 30 -11 49 -28 19 -17 26 -25 15 -18 -18 13 -19 12 -7 -3 8 -10 20 -14
29 -11 10 4 14 2 10 -4 -9 -15 41 -10 55 6 10 11 10 12 1 7 -19 -11 -16 9 4
25 11 10 14 10 9 2 -11 -19 -1 -16 15 4 10 11 10 14 2 9 -19 -11 -16 9 4 25
15 12 16 12 8 -1 -8 -13 -7 -13 8 -1 18 15 23 26 7 16 -17 -10 -11 12 7 26 15
12 16 12 8 -1 -8 -13 -7 -13 8 -1 18 15 23 26 7 16 -17 -10 -11 12 7 26 15 12
16 12 8 -1 -8 -13 -7 -13 8 -1 18 15 23 26 7 16 -17 -10 -11 12 7 26 11 10 14
10 9 2 -11 -19 -1 -16 15 4 10 11 10 14 2 9 -19 -11 -16 9 4 25 15 12 16 12 8
-1 -8 -13 -7 -13 8 -1 18 15 23 26 7 16 -14 -9 -12 9 3 24 10 10 8 11 -7 5
-13 -5 -17 -4 -12 4 4 7 2 10 -6 7 -8 -3 -22 2 -33 11 -11 8 -13 12 -5 8 13
-7 13 -5 1 9 -15 19 -26 23 -15 6 4 -7 1 -10 -7 -7 -8 3 -12 12 -11 19 2 8 0
11 -4 7 -8 -9 -34 10 -34 24 0 6 8 4 18 -3 14 -11 15 -11 5 1 -15 17 -62 20
-56 4z"/>
<path d="M1926 3849 c6 -10 -64 -21 -78 -13 -7 5 -8 3 -3 -6 6 -10 4 -12 -9
-7 -11 5 -15 3 -10 -5 5 -8 2 -9 -10 -5 -11 5 -15 3 -10 -5 5 -8 2 -9 -10 -5
-11 5 -15 3 -10 -5 5 -8 2 -9 -9 -5 -9 3 -19 1 -23 -5 -5 -7 -2 -8 6 -3 9 6
11 4 6 -4 -5 -7 -14 -10 -21 -8 -7 3 -37 -20 -66 -50 -30 -31 -48 -52 -40 -48
9 5 12 3 9 -6 -3 -8 -10 -14 -16 -14 -5 0 -14 -4 -19 -9 -5 -5 -2 -6 6 -1 9 5
12 3 9 -6 -3 -8 -10 -13 -16 -12 -7 2 -9 -4 -5 -14 4 -10 2 -14 -4 -10 -7 5
-9 -1 -5 -15 3 -14 1 -19 -6 -14 -8 5 -10 1 -5 -10 4 -11 2 -15 -4 -11 -6 4
-8 -3 -5 -20 3 -15 1 -23 -4 -20 -6 3 -8 -9 -6 -30 3 -20 1 -33 -4 -30 -5 3
-9 -19 -9 -48 0 -29 4 -51 9 -48 5 3 7 -10 4 -30 -2 -21 0 -33 6 -30 5 3 7 -5
4 -20 -3 -15 -2 -24 3 -22 11 7 22 -32 13 -46 -5 -8 -3 -9 6 -4 10 6 12 4 7
-8 -3 -9 -1 -19 5 -23 7 -5 8 -2 3 6 -6 9 -4 11 4 6 7 -5 10 -14 7 -22 -3 -8
0 -13 6 -11 6 1 13 -4 16 -12 3 -9 0 -11 -9 -6 -8 4 10 -17 40 -48 29 -30 59
-53 66 -50 7 2 16 -1 21 -8 5 -8 3 -10 -6 -4 -8 5 -11 4 -6 -3 4 -6 14 -8 23
-5 11 4 14 3 9 -5 -5 -8 -1 -10 10 -5 12 4 15 3 10 -5 -5 -8 -1 -10 10 -5 13
5 15 3 9 -7 -5 -8 -4 -11 3 -6 14 8 64 -3 57 -14 -2 -4 54 -7 125 -6 71 0 127
3 124 7 -6 10 45 21 58 13 7 -5 8 -2 3 6 -6 10 -4 12 9 7 11 -5 15 -3 10 5 -5
8 -2 9 9 5 10 -4 16 -2 14 5 -1 6 4 13 12 16 9 3 11 0 6 -9 -5 -8 -4 -11 1 -6
5 5 9 14 9 20 0 5 6 12 14 15 9 3 11 0 6 -9 -4 -8 15 8 43 35 28 27 48 54 45
61 -2 7 1 16 8 21 8 5 10 3 4 -6 -5 -8 -4 -11 3 -6 6 4 8 14 5 23 -4 11 -3 14
5 9 8 -5 10 -1 5 10 -4 12 -3 15 5 10 8 -5 10 -1 5 10 -4 12 -3 15 5 10 8 -5
10 -1 5 10 -4 11 -3 15 4 11 7 -5 9 1 5 15 -3 11 -1 19 4 16 5 -4 10 6 11 20
6 108 3 193 -6 230 -7 23 -9 48 -5 54 5 7 3 8 -6 3 -10 -6 -12 -4 -7 9 5 11 3
15 -5 10 -8 -5 -9 -2 -5 10 5 11 3 15 -5 10 -8 -5 -9 -2 -5 10 5 11 3 15 -5
10 -8 -5 -9 -2 -5 9 3 9 1 19 -5 23 -7 5 -8 2 -3 -6 5 -9 4 -11 -4 -6 -7 4
-10 13 -8 19 6 16 -83 107 -98 100 -7 -2 -16 1 -21 8 -5 8 -3 10 6 4 8 -5 11
-4 6 3 -4 6 -14 8 -23 5 -11 -4 -14 -3 -9 5 5 8 1 10 -10 5 -12 -4 -15 -3 -10
5 5 8 1 10 -10 5 -13 -5 -15 -3 -9 7 5 8 4 11 -3 6 -12 -7 -103 14 -97 23 2 3
-37 6 -85 6 -48 0 -86 -3 -84 -6z"/>
</g>
</svg>
