<svg xmlns="http://www.w3.org/2000/svg" viewBox="300 300 1400 1400" version="1.1">
		<g id="Drums">
			<g>
				<path id="Drum-Shadow" opacity="0.1" fill="#333333" d="M 1626.6 1282.8 c 0 45.4 -280.5 82.1 -626.6 82.1 c -346 0 -626.6 -36.8 -626.6 -82.1 c 0 -45.4 280.5 -82.1 626.6 -82.1 C 1346 1200.6 1626.6 1237.4 1626.6 1282.8 Z"></path>
				<g id="Snare">
					<g id="Snare-Drum" data-svg-origin="1328.5 995" style="transform-origin: 0px 0px 0px; transform: matrix(1, 0, 0, 1, 0, 0);">
						<rect fill="#9e603c" stroke="#333333" stroke-linecap="round" stroke-linejoin="round" stroke-miterlimit="10" stroke-width="8" x="1219" y="885" width="223" height="110"></rect>
						<line fill="#613e2a" stroke="#613e2a" stroke-miterlimit="10" stroke-width="8" x1="1440" y1="914" x2="1225" y2="914"></line>
						<g>
							<path fill="#ffffff" stroke="#ffffff" stroke-linecap="round" stroke-linejoin="round" stroke-miterlimit="10" stroke-width="6" d="M 1227 950 c 0 4.4 -3.6 8 -8 8 l 0 0 c -4.4 0 -8 -3.6 -8 -8 v -20 c 0 -4.4 3.6 -8 8 -8 l 0 0 c 4.4 0 8 3.6 8 8 V 950 Z"></path>

							<path fill="#ffffff" stroke="#ffffff" stroke-linecap="round" stroke-linejoin="round" stroke-miterlimit="10" stroke-width="6" d="M 1450 950 c 0 4.4 -3.6 8 -8 8 l 0 0 c -4.4 0 -8 -3.6 -8 -8 v -20 c 0 -4.4 3.6 -8 8 -8 l 0 0 c 4.4 0 8 3.6 8 8 V 950 Z"></path>
							<g>

								<line fill="none" stroke="#333333" stroke-linecap="round" stroke-linejoin="round" stroke-miterlimit="10" stroke-width="8" x1="1293" y1="971" x2="1293" y2="958"></line>

								<line fill="none" stroke="#333333" stroke-linecap="round" stroke-linejoin="round" stroke-miterlimit="10" stroke-width="8" x1="1293" y1="922" x2="1293" y2="909"></line>

								<path fill="#ffffff" stroke="#ffffff" stroke-linecap="round" stroke-linejoin="round" stroke-miterlimit="10" stroke-width="6" d="M 1301 950 c 0 4.4 -3.6 8 -8 8 l 0 0 c -4.4 0 -8 -3.6 -8 -8 v -20 c 0 -4.4 3.6 -8 8 -8 l 0 0 c 4.4 0 8 3.6 8 8 V 950 Z"></path>
							</g>
							<g>

								<line fill="none" stroke="#333333" stroke-linecap="round" stroke-linejoin="round" stroke-miterlimit="10" stroke-width="8" x1="1368" y1="971" x2="1368" y2="958"></line>

								<line fill="none" stroke="#333333" stroke-linecap="round" stroke-linejoin="round" stroke-miterlimit="10" stroke-width="8" x1="1368" y1="922" x2="1368" y2="909"></line>

								<path fill="#ffffff" stroke="#ffffff" stroke-linecap="round" stroke-linejoin="round" stroke-miterlimit="10" stroke-width="6" d="M 1376 950 c 0 4.4 -3.6 8 -8 8 l 0 0 c -4.4 0 -8 -3.6 -8 -8 v -20 c 0 -4.4 3.6 -8 8 -8 l 0 0 c 4.4 0 8 3.6 8 8 V 950 Z"></path>
							</g>
						</g>

						<rect fill="#333333" stroke="#333333" stroke-linecap="round" stroke-linejoin="round" stroke-miterlimit="10" stroke-width="8" x="1209" y="885" width="241" height="21"></rect>

						<rect fill="#333333" stroke="#333333" stroke-linecap="round" stroke-linejoin="round" stroke-miterlimit="10" stroke-width="8" x="1207" y="974" width="241" height="21"></rect>
						<line fill="none" stroke="#333333" stroke-miterlimit="10" stroke-width="4" x1="1208" y1="900" x2="1446" y2="900"></line>
						<line fill="none" stroke="#333333" stroke-miterlimit="10" stroke-width="4" x1="1208" y1="989" x2="1446" y2="989"></line>
					</g>
					<g id="Snare-Stand">

						<rect fill="#ffffff" stroke="#ffffff" stroke-linecap="round" stroke-linejoin="round" stroke-miterlimit="10" stroke-width="6" x="1321" y="1087" width="17" height="95"></rect>
						<g>
							<g>

								<path fill="#ffffff" stroke="#ffffff" stroke-linecap="round" stroke-linejoin="round" stroke-miterlimit="10" stroke-width="6" d="M 1403.4 1256 c -3.4 3.4 -8.8 3.3 -12.1 -0.1 l -66.7 -66.7 c -3.4 -3.4 -3.5 -8.7 -0.1 -12.1 l 0 0 c 3.4 -3.4 8.8 -3.3 12.1 0.1 l 66.7 66.7 C 1406.6 1247.2 1406.7 1252.6 1403.4 1256 L 1403.4 1256 Z"></path>

								<line fill="none" stroke="#ffffff" stroke-miterlimit="10" stroke-width="4" x1="1395.4" y1="1252.8" x2="1328.2" y2="1185.6"></line>

								<path fill="#333333" stroke="#333333" stroke-linecap="round" stroke-linejoin="round" stroke-miterlimit="10" stroke-width="6" d="M 1403.8 1244.4 l -12 12 c 0 0 6.4 10.8 8 12.4 c 4.7 4.7 11.9 4.3 16.6 -0.4 c 4.7 -4.7 5.1 -11.9 0.5 -16.6 C 1415.3 1250.4 1403.8 1244.4 1403.8 1244.4 Z"></path>
							</g>
							<g>

								<path fill="#ffffff" stroke="#ffffff" stroke-linecap="round" stroke-linejoin="round" stroke-miterlimit="10" stroke-width="6" d="M 1257.5 1255.7 c -3.4 -3.4 -3.3 -8.8 0.1 -12.1 l 66.7 -66.7 c 3.4 -3.4 8.7 -3.5 12.1 -0.1 l 0 0 c 3.4 3.4 3.3 8.8 -0.1 12.1 l -66.7 66.7 C 1266.2 1259 1260.8 1259.1 1257.5 1255.7 L 1257.5 1255.7 Z"></path>

								<line fill="none" stroke="#ffffff" stroke-miterlimit="10" stroke-width="4" x1="1265.7" y1="1252.8" x2="1330.5" y2="1187.9"></line>

								<path fill="#333333" stroke="#333333" stroke-linecap="round" stroke-linejoin="round" stroke-miterlimit="10" stroke-width="6" d="M 1269 1256.1 l -12 -12 c 0 0 -10.8 6.4 -12.4 8 c -4.7 4.7 -4.3 11.9 0.4 16.6 c 4.7 4.7 11.9 5.1 16.6 0.5 C 1263 1267.7 1269 1256.1 1269 1256.1 Z"></path>
							</g>
							<g>

								<path fill="#333333" stroke="#333333" stroke-linecap="round" stroke-linejoin="round" stroke-miterlimit="10" stroke-width="6" d="M 1317.1 1182.8 c 0 -7.5 6 -13.5 13.5 -13.5 s 13.5 6 13.5 13.5 c 0 7.5 -6 13.5 -13.5 13.5 S 1317.1 1190.2 1317.1 1182.8 Z"></path>
								<path fill="#333333" d="M 1333 1179.5 c -1.8 -1.3 -4.3 -0.9 -5.6 0.9 c -1.3 1.8 -0.9 4.3 0.9 5.6 c 1.8 1.3 4.3 0.9 5.6 -0.9 C 1335.2 1183.3 1334.8 1180.8 1333 1179.5 Z"></path>
							</g>
						</g>
						<g>
							<g>
								<g>

									<path fill="#5c5c5c" stroke="#333333" stroke-linecap="round" stroke-linejoin="round" stroke-miterlimit="10" stroke-width="6" d="M 1210 979.6 c 0 -3.7 -2.8 -6.6 -6.5 -6.6 c -3.7 0 -6.5 3 -6.5 6.6 V 992 h 13 V 979.6 Z"></path>

									<path fill="#ffffff" stroke="#ffffff" stroke-linecap="round" stroke-linejoin="round" stroke-miterlimit="10" stroke-width="6" d="M 1210 997.3 V 992 h -13 v 10 c 0 3.6 2.5 7.1 6.1 7.5 l 122.3 13.6 l 1.2 -12.9 L 1210 997.3 Z"></path>
									<path fill="#bcece8" d="M 1203.8 1006.6 l 118.8 13.3 l 0.2 -2 l -121.6 -13.6 C 1201.6 1005.5 1202.6 1006.4 1203.8 1006.6 Z"></path>
								</g>
								<g>

									<path fill="#ffffff" stroke="#ffffff" stroke-linecap="round" stroke-linejoin="round" stroke-miterlimit="10" stroke-width="6" d="M 1462 992 h -13 v 5.3 l -114.7 12.8 l 1.6 12.9 l 120.5 -13.5 c 3.6 -0.4 5.5 -4 5.5 -7.5 l 0 0 V 992 Z"></path>
									<path fill="#ffffff" d="M 1338.5 1017.7 l 0.2 2 l 117.8 -13.1 c 1.1 -0.1 1.9 -0.9 2.5 -1.9 L 1338.5 1017.7 Z"></path>

									<path fill="#333333" stroke="#333333" stroke-linecap="round" stroke-linejoin="round" stroke-miterlimit="10" stroke-width="6" d="M 1462 979.6 c 0 -3.7 -2.8 -6.6 -6.5 -6.6 c -3.7 0 -6.5 3 -6.5 6.6 V 992 h 13 V 979.6 Z"></path>
								</g>
							</g>
							<g>
								<g>

									<rect fill="#ffffff" stroke="#ffffff" stroke-linecap="round" stroke-linejoin="round" stroke-miterlimit="10" stroke-width="6" transform="matrix(1 0.00570904 -0.00570904 1 6.0417 -7.5767)" x="1323.6" y="1017" width="13" height="75"></rect>

									<circle fill="#333333" stroke="#333333" stroke-linecap="round" stroke-linejoin="round" stroke-miterlimit="10" stroke-width="6" cx="1330.6" cy="1016.8" r="8.5"></circle>
									<circle fill="#333333" cx="1330.6" cy="1016.8" r="2"></circle>
								</g>
								<g>

									<path fill="#ffffff" stroke="#ffffff" stroke-linecap="round" stroke-linejoin="round" stroke-miterlimit="10" stroke-width="6" d="M 1418.4 1004.6 c -2.5 -2.6 -6.6 -2.6 -9.2 -0.1 l -83.8 82.9 l 9.1 9.2 l 83.8 -82.9 C 1420.9 1011.2 1420.9 1007.1 1418.4 1004.6 Z"></path>
									<line fill="none" stroke="#ffffff" stroke-miterlimit="10" stroke-width="2" x1="1408.9" y1="1017" x2="1344.2" y2="1081"></line>

									<circle fill="#333333" stroke="#333333" stroke-linecap="round" stroke-linejoin="round" stroke-miterlimit="10" stroke-width="6" cx="1414.6" cy="1007.8" r="8.5"></circle>
									<circle fill="#333333" cx="1414.6" cy="1007.8" r="2"></circle>
								</g>
								<g>

									<path fill="#ffffff" stroke="#ffffff" stroke-linecap="round" stroke-linejoin="round" stroke-miterlimit="10" stroke-width="6" d="M 1243.7 1003.6 c -2.6 2.5 -2.6 6.6 -0.1 9.2 l 82.9 83.8 l 9.2 -9.1 l -82.9 -83.8 C 1250.4 1001.1 1246.3 1001.1 1243.7 1003.6 Z"></path>
									<line fill="none" stroke="#bcece8" stroke-miterlimit="10" stroke-width="2" x1="1247.8" y1="1011" x2="1317.1" y2="1081"></line>

									<circle fill="#333333" stroke="#333333" stroke-linecap="round" stroke-linejoin="round" stroke-miterlimit="10" stroke-width="6" cx="1248.6" cy="1007.8" r="8.5"></circle>
									<circle fill="#333333" cx="1248.6" cy="1007.8" r="2"></circle>
								</g>
							</g>

							<path fill="#333333" stroke="#333333" stroke-linecap="round" stroke-linejoin="round" stroke-miterlimit="10" stroke-width="6" d="M 1348 1089.1 c 0 4.9 -4 8.9 -8.9 8.9 h -18.2 c -4.9 0 -8.9 -4 -8.9 -8.9 v -4.2 c 0 -4.9 4 -8.9 8.9 -8.9 h 18.2 c 4.9 0 8.9 4 8.9 8.9 V 1089.1 Z"></path>
						</g>
					</g>
				</g>
				<g id="Floor-Tom">
					<g id="Floor-Tom-Drum">

						<rect fill="#9e603c" stroke="#333333" stroke-linecap="round" stroke-linejoin="round" stroke-miterlimit="10" stroke-width="8" x="541" y="878" width="287" height="320"></rect>
						<line fill="none" stroke="#613e2a" stroke-miterlimit="10" stroke-width="8" x1="824" y1="907" x2="545" y2="907"></line>
						<g>
							<g>

								<path fill="#ffffff" stroke="#ffffff" stroke-linecap="round" stroke-linejoin="round" stroke-miterlimit="10" stroke-width="6" d="M 549 940 c 0 4.4 -3.6 8 -8 8 l 0 0 c -4.4 0 -8 -3.6 -8 -8 v -20 c 0 -4.4 3.6 -8 8 -8 l 0 0 c 4.4 0 8 3.6 8 8 V 940 Z"></path>

								<path fill="#ffffff" stroke="#ffffff" stroke-linecap="round" stroke-linejoin="round" stroke-miterlimit="10" stroke-width="6" d="M 836 940 c 0 4.4 -3.6 8 -8 8 l 0 0 c -4.4 0 -8 -3.6 -8 -8 v -20 c 0 -4.4 3.6 -8 8 -8 l 0 0 c 4.4 0 8 3.6 8 8 V 940 Z"></path>
								<g>

									<line fill="none" stroke="#333333" stroke-linecap="round" stroke-linejoin="round" stroke-miterlimit="10" stroke-width="8" x1="637" y1="912" x2="637" y2="899"></line>

									<path fill="#ffffff" stroke="#ffffff" stroke-linecap="round" stroke-linejoin="round" stroke-miterlimit="10" stroke-width="6" d="M 645 940 c 0 4.4 -3.6 8 -8 8 l 0 0 c -4.4 0 -8 -3.6 -8 -8 v -20 c 0 -4.4 3.6 -8 8 -8 l 0 0 c 4.4 0 8 3.6 8 8 V 940 Z"></path>
								</g>
								<g>

									<line fill="none" stroke="#333333" stroke-linecap="round" stroke-linejoin="round" stroke-miterlimit="10" stroke-width="8" x1="732" y1="912" x2="732" y2="899"></line>

									<path fill="#ffffff" stroke="#ffffff" stroke-linecap="round" stroke-linejoin="round" stroke-miterlimit="10" stroke-width="6" d="M 740 940 c 0 4.4 -3.6 8 -8 8 l 0 0 c -4.4 0 -8 -3.6 -8 -8 v -20 c 0 -4.4 3.6 -8 8 -8 l 0 0 c 4.4 0 8 3.6 8 8 V 940 Z"></path>
								</g>
							</g>

							<rect fill="#333333" stroke="#333333" stroke-linecap="round" stroke-linejoin="round" stroke-miterlimit="10" stroke-width="8" x="532" y="878" width="304" height="21"></rect>
							<line fill="none" stroke="#333333" stroke-miterlimit="10" stroke-width="4" x1="536" y1="893" x2="832" y2="893"></line>
						</g>
						<g>
							<g>

								<path fill="#ffffff" stroke="#ffffff" stroke-linecap="round" stroke-linejoin="round" stroke-miterlimit="10" stroke-width="6" d="M 836 1156 c 0 4.4 -3.6 8 -8 8 l 0 0 c -4.4 0 -8 -3.6 -8 -8 v -20 c 0 -4.4 3.6 -8 8 -8 l 0 0 c 4.4 0 8 3.6 8 8 V 1156 Z"></path>

								<path fill="#ffffff" stroke="#ffffff" stroke-linecap="round" stroke-linejoin="round" stroke-miterlimit="10" stroke-width="6" d="M 549 1156 c 0 4.4 -3.6 8 -8 8 l 0 0 c -4.4 0 -8 -3.6 -8 -8 v -20 c 0 -4.4 3.6 -8 8 -8 l 0 0 c 4.4 0 8 3.6 8 8 V 1156 Z"></path>
								<g>

									<line fill="none" stroke="#333333" stroke-linecap="round" stroke-linejoin="round" stroke-miterlimit="10" stroke-width="8" x1="732" y1="1164" x2="732" y2="1177"></line>

									<path fill="#ffffff" stroke="#ffffff" stroke-linecap="round" stroke-linejoin="round" stroke-miterlimit="10" stroke-width="6" d="M 740 1156 c 0 4.4 -3.6 8 -8 8 l 0 0 c -4.4 0 -8 -3.6 -8 -8 v -20 c 0 -4.4 3.6 -8 8 -8 l 0 0 c 4.4 0 8 3.6 8 8 V 1156 Z"></path>
								</g>
								<g>

									<line fill="none" stroke="#333333" stroke-linecap="round" stroke-linejoin="round" stroke-miterlimit="10" stroke-width="8" x1="637" y1="1164" x2="637" y2="1177"></line>

									<path fill="#ffffff" stroke="#ffffff" stroke-linecap="round" stroke-linejoin="round" stroke-miterlimit="10" stroke-width="6" d="M 645 1156 c 0 4.4 -3.6 8 -8 8 l 0 0 c -4.4 0 -8 -3.6 -8 -8 v -20 c 0 -4.4 3.6 -8 8 -8 l 0 0 c 4.4 0 8 3.6 8 8 V 1156 Z"></path>
								</g>
							</g>

							<rect fill="#333333" stroke="#333333" stroke-linecap="round" stroke-linejoin="round" stroke-miterlimit="10" stroke-width="8" x="533" y="1177" width="304" height="21"></rect>
							<line fill="none" stroke="#333333" stroke-miterlimit="10" stroke-width="4" x1="537" y1="1192" x2="833" y2="1192"></line>
						</g>
					</g>
					<g id="Floor-Tom-Legs">
						<g>

							<path fill="#ffffff" stroke="#ffffff" stroke-linecap="round" stroke-linejoin="round" stroke-miterlimit="10" stroke-width="6" d="M 526.3 1122.8 l -11.3 52.7 v 76.2 c 0 3.1 2.4 5.7 5.5 5.7 s 5.5 -2.5 5.5 -5.7 v -75 l 11.3 -52.7 l 11.2 -52.7 l 3.6 -16.6 l -10.9 -2.2 L 526.3 1122.8 Z"></path>

							<path fill="#333333" stroke="#333333" stroke-linecap="round" stroke-linejoin="round" stroke-miterlimit="10" stroke-width="6" d="M 533.5 1245 L 533.5 1245 l -6.8 -11 h -11 l -6.6 11 h 0 c -1.3 2 -2 4.6 -2 7.3 c 0 7.8 6.3 14.2 14.2 14.2 s 14.2 -6.6 14.2 -14.4 C 535.3 1249.6 534.7 1247 533.5 1245 Z"></path>

							<path fill="#333333" stroke="#333333" stroke-linecap="round" stroke-linejoin="round" stroke-miterlimit="10" stroke-width="6" d="M 553 1014 c 0 -5.6 -4.9 -10.2 -10.5 -10.2 s -10.5 4.6 -10.5 10.2 v 58 h 21 V 1014 Z"></path>
						</g>
						<g>

							<path fill="#ffffff" stroke="#ffffff" stroke-linecap="round" stroke-linejoin="round" stroke-miterlimit="10" stroke-width="6" d="M 681 1251.7 c 0 3.1 2.4 5.7 5.5 5.7 s 5.5 -2.5 5.5 -5.7 V 1070 h -11 V 1251.7 Z"></path>

							<path fill="#333333" stroke="#333333" stroke-linecap="round" stroke-linejoin="round" stroke-miterlimit="10" stroke-width="6" d="M 699.5 1245 L 699.5 1245 l -6.8 -11 h -11 l -6.6 11 h 0 c -1.3 2 -2 4.6 -2 7.3 c 0 7.8 6.3 14.2 14.2 14.2 s 14.2 -6.6 14.2 -14.4 C 701.3 1249.6 700.7 1247 699.5 1245 Z"></path>

							<path fill="#333333" stroke="#333333" stroke-linecap="round" stroke-linejoin="round" stroke-miterlimit="10" stroke-width="6" d="M 697 1014 c 0 -5.6 -4.9 -10.2 -10.5 -10.2 s -10.5 4.6 -10.5 10.2 v 58 h 21 V 1014 Z"></path>
						</g>
						<g>

							<path fill="#ffffff" stroke="#ffffff" stroke-linecap="round" stroke-linejoin="round" stroke-miterlimit="10" stroke-width="6" d="M 843.6 1122.8 l -14.2 -70.5 l -10.7 2.2 l 3.4 16.6 l 10.5 52.7 l 10.4 52.7 v 75 c 0 3.1 2.4 5.7 5.5 5.7 s 5.5 -2.5 5.5 -5.7 v -76.2 L 843.6 1122.8 Z"></path>

							<path fill="#333333" stroke="#333333" stroke-linecap="round" stroke-linejoin="round" stroke-miterlimit="10" stroke-width="6" d="M 861.5 1245 L 861.5 1245 l -6.8 -11 h -11 l -6.6 11 h 0 c -1.3 2 -2 4.6 -2 7.3 c 0 7.8 6.3 14.2 14.2 14.2 s 14.2 -6.6 14.2 -14.4 C 863.3 1249.6 862.7 1247 861.5 1245 Z"></path>

							<path fill="#333333" stroke="#333333" stroke-linecap="round" stroke-linejoin="round" stroke-miterlimit="10" stroke-width="6" d="M 816 1014 c 0 -5.6 4.9 -10.2 10.5 -10.2 s 10.5 4.6 10.5 10.2 v 58 h -21 V 1014 Z"></path>
						</g>
					</g>
				</g>
				<g id="Hi-Hat">
					<g id="Hi-Hat-Stand-Top" data-svg-origin="1390 725.5" style="transform: matrix(1, 0, 0, 1, 0, 0);">

						<path fill="#ffffff" stroke="#ffffff" stroke-linecap="round" stroke-linejoin="round" stroke-miterlimit="10" stroke-width="6" d="M 1494 849 V 731.2 c 0 -3.1 -2.4 -5.7 -5.5 -5.7 c -3.1 0 -5.5 2.5 -5.5 5.7 V 849 H 1494 Z"></path>

						<path fill="#333333" stroke="#333333" stroke-linecap="round" stroke-linejoin="round" stroke-miterlimit="10" stroke-width="6" d="M 1497 998.8 c 0 4.6 -3.7 8.2 -8.2 8.2 h -0.5 c -4.6 0 -8.2 -3.7 -8.2 -8.2 V 761.2 c 0 -4.6 3.7 -8.2 8.2 -8.2 h 0.5 c 4.6 0 8.2 3.7 8.2 8.2 V 998.8 Z"></path>
						<rect fill="#bcece8" x="1483" y="800" width="11" height="78"></rect>

						<path fill="#333333" stroke="#333333" stroke-linecap="round" stroke-linejoin="round" stroke-miterlimit="10" stroke-width="6" d="M 1502.7 775 c 0 -1 -0.7 -0.6 -0.7 -0.7 v -0.5 c 0 -4.6 -3 -7.8 -7.6 -7.8 h -10.5 c -4.6 0 -8.9 3.2 -8.9 7.8 v 0.5 c 0 0.1 0.7 -0.3 0.7 0.7 H 1502.7 Z"></path>
						<g id="Hi-Hat-Top" data-svg-origin="1488 789.3500671386719" style="transform: matrix(1, 0, 0, 1, 0, 0); transform-origin: 0px 0px 0px;">

							<path fill="#fde74c" stroke="#fde74c" stroke-linecap="round" stroke-linejoin="round" stroke-miterlimit="10" stroke-width="6" d="M 1579.8 789.7 l -33 -0.8 c -23 -0.5 -32.8 -4.5 -39.5 -9 c 0 0 0.1 0.2 0.1 0.2 c -3.5 -2.8 -7.9 -4.2 -12.7 -4.2 c -1.5 0 -5.9 0 -5.9 0 s -4.4 0 -5.9 0 c -4.8 0 -9.3 1.4 -12.8 4.2 c 0 0 0 -0.1 0 -0.1 c -6.6 4.5 -16.6 8.4 -39.6 8.9 l -33.5 0.7 c -3.7 0 -7 2.7 -7 6.4 v 0.1 c 0 3.7 3.6 6.7 7.3 6.7 h 91.4 h 91.4 c 3.7 0 5.8 -3 5.8 -6.7 v -0.1 C 1586 792.5 1583.5 789.7 1579.8 789.7 Z"></path>

							<line fill="none" stroke="#fef5b7" stroke-linecap="round" stroke-linejoin="round" stroke-miterlimit="10" stroke-width="4" x1="1479" y1="783" x2="1497" y2="783"></line>
						</g>
					</g>
					<g id="Hi-Hat-Bottom" data-svg-origin="1488.0000610351562 819.4500427246094" style="transform: matrix(1, 0, 0, 1, 0, 0); transform-origin: 0px 0px 0px;">

						<path fill="#fde74c" stroke="#fde74c" stroke-linecap="round" stroke-linejoin="round" stroke-miterlimit="10" stroke-width="6" d="M 1397 818.3 l 32.8 0.8 c 23 0.5 33.2 4.5 39.2 9 v 0 c 4 2.8 9 4.9 13.8 4.9 c 1.5 0 5.9 0 5.9 0 s 4.4 0 5.9 0 c 4.8 0 9.3 -1.9 12.8 -4.7 l 0 -0.1 c 6.6 -4.5 16.6 -8.5 39.6 -9.1 l 32.8 -0.8 c 3.7 0 6.2 -2.8 6.2 -6.5 v -0.1 c 0 -3.7 -2.2 -5.8 -5.8 -5.8 h -91.4 h -91.4 c -3.7 0 -7.3 2.1 -7.3 5.8 v 0.1 C 1390 815.6 1393.3 818.3 1397 818.3 Z"></path>

						<line opacity="0.3" fill="none" stroke="#bead39" stroke-linecap="round" stroke-linejoin="round" stroke-miterlimit="10" stroke-width="4" x1="1479" y1="826" x2="1497" y2="826"></line>
					</g>
					<g id="Hi-Hat-Stand">

						<rect fill="#eefaf9" stroke="#ffffff" stroke-linecap="round" stroke-linejoin="round" stroke-miterlimit="10" stroke-width="6" x="1480" y="833" width="17" height="367"></rect>
						<g>
							<g>

								<path fill="#eefaf9" stroke="#ffffff" stroke-linecap="round" stroke-linejoin="round" stroke-miterlimit="10" stroke-width="6" d="M 1561.8 1272 c -3.4 3.4 -8.8 3.3 -12.1 -0.1 l -66.7 -66.7 c -3.4 -3.4 -3.5 -8.7 -0.1 -12.1 l 0 0 c 3.4 -3.4 8.8 -3.3 12.1 0.1 l 66.7 66.7 C 1565.1 1263.2 1565.2 1268.6 1561.8 1272 L 1561.8 1272 Z"></path>

								<line fill="none" stroke="#ffffff" stroke-miterlimit="10" stroke-width="4" x1="1553.9" y1="1268.8" x2="1486.7" y2="1201.6"></line>

								<path fill="#333333" stroke="#333333" stroke-linecap="round" stroke-linejoin="round" stroke-miterlimit="10" stroke-width="6" d="M 1562.2 1260.4 l -12 12 c 0 0 6.4 10.8 8 12.4 c 4.7 4.7 11.9 4.3 16.6 -0.4 c 4.7 -4.7 5.1 -11.9 0.5 -16.6 C 1573.8 1266.4 1562.2 1260.4 1562.2 1260.4 Z"></path>
							</g>
							<g>

								<path fill="#eefaf9" stroke="#ffffff" stroke-linecap="round" stroke-linejoin="round" stroke-miterlimit="10" stroke-width="6" d="M 1416 1271.7 c -3.4 -3.4 -3.3 -8.8 0.1 -12.1 l 66.7 -66.7 c 3.4 -3.4 8.7 -3.5 12.1 -0.1 l 0 0 c 3.4 3.4 3.3 8.8 -0.1 12.1 l -66.7 66.7 C 1424.7 1275 1419.3 1275.1 1416 1271.7 L 1416 1271.7 Z"></path>
								<line fill="none" stroke="#ffffff" stroke-miterlimit="10" stroke-width="4" x1="1424.2" y1="1268.8" x2="1489" y2="1203.9"></line>

								<path fill="#333333" stroke="#333333" stroke-linecap="round" stroke-linejoin="round" stroke-miterlimit="10" stroke-width="6" d="M 1427.5 1272.1 l -12 -12 c 0 0 -10.8 6.4 -12.4 8 c -4.7 4.7 -4.3 11.9 0.4 16.6 c 4.7 4.7 11.9 5.1 16.6 0.5 C 1421.5 1283.7 1427.5 1272.1 1427.5 1272.1 Z"></path>
							</g>
							<g>

								<path fill="#333333" stroke="#333333" stroke-linecap="round" stroke-linejoin="round" stroke-miterlimit="10" stroke-width="6" d="M 1475.6 1198.8 c 0 -7.5 6 -13.5 13.5 -13.5 s 13.5 6 13.5 13.5 c 0 7.5 -6 13.5 -13.5 13.5 S 1475.6 1206.2 1475.6 1198.8 Z"></path>
								<path fill="#333333" d="M 1491.5 1195.5 c -1.8 -1.3 -4.3 -0.9 -5.6 0.9 c -1.3 1.8 -0.9 4.3 0.9 5.6 c 1.8 1.3 4.3 0.9 5.6 -0.9 C 1493.7 1199.3 1493.3 1196.8 1491.5 1195.5 Z"></path>
							</g>
						</g>
						<g>

							<circle fill="#eefaf9" stroke="#ffffff" stroke-linecap="round" stroke-linejoin="round" stroke-miterlimit="10" stroke-width="6" cx="1504.7" cy="998.5" r="10"></circle>

							<path fill="#333333" stroke="#333333" stroke-linecap="round" stroke-linejoin="round" stroke-miterlimit="10" stroke-width="6" d="M 1502 1010.1 c 0 6 -4.9 10.9 -10.9 10.9 h -5.1 c -6 0 -10.9 -4.9 -10.9 -10.9 v -22.1 c 0 -6 4.9 -10.9 10.9 -10.9 h 5.1 c 6 0 10.9 4.9 10.9 10.9 V 1010.1 Z"></path>
						</g>

						<path fill="#333333" stroke="#333333" stroke-linecap="round" stroke-linejoin="round" stroke-miterlimit="10" stroke-width="6" d="M 1475.7 833 c 0 0 -0.7 -0.3 -0.7 -0.2 v 0.5 c 0 4.6 4.4 8.7 8.9 8.7 h 10.5 c 4.6 0 7.6 -4.2 7.6 -8.7 v -0.5 c 0 -0.1 0.7 0.2 0.7 0.2 H 1475.7 Z"></path>
					</g>
				</g>
				<g id="Main-Kit">
					<g id="Toms">
						<g id="Tom-Rack">

							<path fill="#ffffff" stroke="#ffffff" stroke-linecap="round" stroke-linejoin="round" stroke-miterlimit="10" stroke-width="6" d="M 1009 760.8 c 5.6 0 10 4.6 10 10.2 v 101 c 0 6 -20 6 -20 0 V 771 C 999 765.4 1003.4 760.8 1009 760.8 L 1009 760.8 Z"></path>

							<path fill="#ffffff" stroke="#ffffff" stroke-linecap="round" stroke-linejoin="round" stroke-miterlimit="10" stroke-width="6" d="M 1052 872 V 771 c 0 -5.6 4.4 -10.2 10 -10.2 l 0 0 c 5.6 0 10 4.6 10 10.2 v 101 C 1072 877.6 1052 877.6 1052 872 Z"></path>

							<path fill="#333333" stroke="#333333" stroke-linecap="round" stroke-linejoin="round" stroke-miterlimit="10" stroke-width="6" d="M 1082.7 872 c 0 6.1 -4.9 11 -11 11 h -72 c -6.1 0 -11 -4.9 -11 -11 l 0 0 c 0 -6.1 4.9 -11 11 -11 h 72 C 1077.8 861 1082.7 865.9 1082.7 872 L 1082.7 872 Z"></path>
						</g>
						<g id="Tom-Left-All" data-svg-origin="1022.3999633789062 771" style="transform: matrix(1, 0, 0, 1, 0, 0); transform-origin: 0px 0px 0px;">
							<g id="Tom-Left-Drum" data-svg-origin="860 771" style="transform-origin: 0px 0px 0px; transform: matrix(1, 0, 0, 1, 0, 0);">

								<rect fill="#9e603c" stroke="#333333" stroke-linecap="round" stroke-linejoin="round" stroke-miterlimit="10" stroke-width="8" x="750" y="679" width="221" height="184"></rect>
								<line fill="none" stroke="#613e2a" stroke-miterlimit="10" stroke-width="8" x1="754" y1="708" x2="967" y2="708"></line>
								<g>
									<g>

										<path fill="#ffffff" stroke="#ffffff" stroke-linecap="round" stroke-linejoin="round" stroke-miterlimit="10" stroke-width="6" d="M 757 739 c 0 4.4 -3.6 8 -8 8 l 0 0 c -4.4 0 -8 -3.6 -8 -8 v -20 c 0 -4.4 3.6 -8 8 -8 l 0 0 c 4.4 0 8 3.6 8 8 V 739 Z"></path>

										<path fill="#ffffff" stroke="#ffffff" stroke-linecap="round" stroke-linejoin="round" stroke-miterlimit="10" stroke-width="6" d="M 979 739 c 0 4.4 -3.6 8 -8 8 l 0 0 c -4.4 0 -8 -3.6 -8 -8 v -20 c 0 -4.4 3.6 -8 8 -8 l 0 0 c 4.4 0 8 3.6 8 8 V 739 Z"></path>
										<g>

											<line fill="#f8fdfd" stroke="#333333" stroke-linecap="round" stroke-linejoin="round" stroke-miterlimit="10" stroke-width="8" x1="823" y1="711" x2="823" y2="698"></line>

											<path fill="#ffffff" stroke="#ffffff" stroke-linecap="round" stroke-linejoin="round" stroke-miterlimit="10" stroke-width="6" d="M 831 739 c 0 4.4 -3.6 8 -8 8 l 0 0 c -4.4 0 -8 -3.6 -8 -8 v -20 c 0 -4.4 3.6 -8 8 -8 l 0 0 c 4.4 0 8 3.6 8 8 V 739 Z"></path>
										</g>
										<g>

											<line fill="#f8fdfd" stroke="#333333" stroke-linecap="round" stroke-linejoin="round" stroke-miterlimit="10" stroke-width="8" x1="897" y1="711" x2="897" y2="698"></line>

											<path fill="#f8fdfd" stroke="#ffffff" stroke-linecap="round" stroke-linejoin="round" stroke-miterlimit="10" stroke-width="6" d="M 905 739 c 0 4.4 -3.6 8 -8 8 l 0 0 c -4.4 0 -8 -3.6 -8 -8 v -20 c 0 -4.4 3.6 -8 8 -8 l 0 0 c 4.4 0 8 3.6 8 8 V 739 Z"></path>
										</g>
									</g>

									<rect fill="#333333" stroke="#333333" stroke-linecap="round" stroke-linejoin="round" stroke-miterlimit="10" stroke-width="8" x="741" y="679" width="238" height="21"></rect>
									<line fill="none" stroke="#333333" stroke-miterlimit="10" stroke-width="4" x1="975" y1="694" x2="745" y2="694"></line>
								</g>
								<g>
									<g>

										<path fill="#ffffff" stroke="#ffffff" stroke-linecap="round" stroke-linejoin="round" stroke-miterlimit="10" stroke-width="6" d="M 979 823 c 0 4.4 -3.6 8 -8 8 l 0 0 c -4.4 0 -8 -3.6 -8 -8 v -20 c 0 -4.4 3.6 -8 8 -8 l 0 0 c 4.4 0 8 3.6 8 8 V 823 Z"></path>

										<path fill="#ffffff" stroke="#ffffff" stroke-linecap="round" stroke-linejoin="round" stroke-miterlimit="10" stroke-width="6" d="M 757 823 c 0 4.4 -3.6 8 -8 8 l 0 0 c -4.4 0 -8 -3.6 -8 -8 v -20 c 0 -4.4 3.6 -8 8 -8 l 0 0 c 4.4 0 8 3.6 8 8 V 823 Z"></path>
										<g>

											<line fill="#eefaf9" stroke="#333333" stroke-linecap="round" stroke-linejoin="round" stroke-miterlimit="10" stroke-width="8" x1="897" y1="831" x2="897" y2="844"></line>

											<path fill="#ffffff" stroke="#ffffff" stroke-linecap="round" stroke-linejoin="round" stroke-miterlimit="10" stroke-width="6" d="M 905 823 c 0 4.4 -3.6 8 -8 8 l 0 0 c -4.4 0 -8 -3.6 -8 -8 v -20 c 0 -4.4 3.6 -8 8 -8 l 0 0 c 4.4 0 8 3.6 8 8 V 823 Z"></path>
										</g>
										<g>

											<line fill="#eefaf9" stroke="#333333" stroke-linecap="round" stroke-linejoin="round" stroke-miterlimit="10" stroke-width="8" x1="823" y1="831" x2="823" y2="844"></line>

											<path fill="#ffffff" stroke="#ffffff" stroke-linecap="round" stroke-linejoin="round" stroke-miterlimit="10" stroke-width="6" d="M 831 823 c 0 4.4 -3.6 8 -8 8 l 0 0 c -4.4 0 -8 -3.6 -8 -8 v -20 c 0 -4.4 3.6 -8 8 -8 l 0 0 c 4.4 0 8 3.6 8 8 V 823 Z"></path>
										</g>
									</g>

									<rect fill="#333333" stroke="#333333" stroke-linecap="round" stroke-linejoin="round" stroke-miterlimit="10" stroke-width="8" x="741" y="842" width="238" height="21"></rect>
									<line fill="none" stroke="#333333" stroke-miterlimit="10" stroke-width="4" x1="975" y1="858" x2="745" y2="858"></line>
								</g>
							</g>
							<g>

								<path fill="#333333" stroke="#333333" stroke-linecap="round" stroke-linejoin="round" stroke-miterlimit="10" stroke-width="6" d="M 959 782.1 c 0 6 -4.9 10.9 -10.9 10.9 h -5.1 c -6 0 -10.9 -4.9 -10.9 -10.9 v -22.1 c 0 -6 4.9 -10.9 10.9 -10.9 h 5.1 c 6 0 10.9 4.9 10.9 10.9 V 782.1 Z"></path>
								<path fill="#333333" d="M 955.6 786 h -18.9 c 1.4 2.4 3.9 4 6.9 4 h 5.1 C 951.7 790 954.3 788.4 955.6 786 Z"></path>

								<path fill="#ffffff" stroke="#ffffff" stroke-linecap="round" stroke-linejoin="round" stroke-miterlimit="10" stroke-width="6" d="M 954.2 781 h 53.8 v 0 c 6 0 10.7 -4.4 10.7 -10 c 0 -5.6 -4.1 -10 -9.7 -10 h 0.1 h -55 c -5.6 0 -10.2 4.4 -10.2 10 C 944 776.6 948.5 781 954.2 781 Z"></path>
								<path fill="#ffffff" d="M 1015.4 774 h -67.8 c 1.1 2.4 3.6 4 6.5 4 h 54.4 c 0 0 0.1 0 0.1 0 C 1011.8 778 1014.3 776.4 1015.4 774 Z"></path>

								<circle fill="#333333" stroke="#333333" stroke-linecap="round" stroke-linejoin="round" stroke-miterlimit="10" stroke-width="6" cx="1009.1" cy="770.8" r="13.3"></circle>
								<path fill="#333333" d="M 1011.5 767.6 c -1.8 -1.3 -4.3 -0.9 -5.6 0.9 c -1.3 1.8 -0.9 4.3 0.9 5.6 c 1.8 1.3 4.3 0.9 5.6 -0.9 C 1013.7 771.4 1013.3 768.9 1011.5 767.6 Z"></path>
							</g>
						</g>
						<g id="Tom-Right-All" data-svg-origin="1049.699951171875 771" style="transform: matrix(1, 0, 0, 1, 0, 0); transform-origin: 0px 0px 0px;">
							<g id="Tom-Right-Drum" data-svg-origin="1211 771" style="transform-origin: 0px 0px 0px; transform: matrix(1, 0, 0, 1, 0, 0);">

								<rect fill="#9e603c" stroke="#333333" stroke-linecap="round" stroke-linejoin="round" stroke-miterlimit="10" stroke-width="8" x="1101" y="679" width="221" height="184"></rect>
								<line fill="none" stroke="#613e2a" stroke-miterlimit="10" stroke-width="8" x1="1105" y1="708" x2="1318" y2="708"></line>
								<g>
									<g>

										<path fill="#ffffff" stroke="#ffffff" stroke-linecap="round" stroke-linejoin="round" stroke-miterlimit="10" stroke-width="6" d="M 1108 739 c 0 4.4 -3.6 8 -8 8 l 0 0 c -4.4 0 -8 -3.6 -8 -8 v -20 c 0 -4.4 3.6 -8 8 -8 l 0 0 c 4.4 0 8 3.6 8 8 V 739 Z"></path>

										<path fill="#ffffff" stroke="#ffffff" stroke-linecap="round" stroke-linejoin="round" stroke-miterlimit="10" stroke-width="6" d="M 1330 739 c 0 4.4 -3.6 8 -8 8 l 0 0 c -4.4 0 -8 -3.6 -8 -8 v -20 c 0 -4.4 3.6 -8 8 -8 l 0 0 c 4.4 0 8 3.6 8 8 V 739 Z"></path>
										<g>

											<line fill="#f8fdfd" stroke="#333333" stroke-linecap="round" stroke-linejoin="round" stroke-miterlimit="10" stroke-width="8" x1="1174" y1="711" x2="1174" y2="698"></line>

											<path fill="#ffffff" stroke="#ffffff" stroke-linecap="round" stroke-linejoin="round" stroke-miterlimit="10" stroke-width="6" d="M 1182 739 c 0 4.4 -3.6 8 -8 8 l 0 0 c -4.4 0 -8 -3.6 -8 -8 v -20 c 0 -4.4 3.6 -8 8 -8 l 0 0 c 4.4 0 8 3.6 8 8 V 739 Z"></path>
										</g>
										<g>

											<line fill="#f8fdfd" stroke="#333333" stroke-linecap="round" stroke-linejoin="round" stroke-miterlimit="10" stroke-width="8" x1="1248" y1="711" x2="1248" y2="698"></line>

											<path fill="#ffffff" stroke="#ffffff" stroke-linecap="round" stroke-linejoin="round" stroke-miterlimit="10" stroke-width="6" d="M 1256 739 c 0 4.4 -3.6 8 -8 8 l 0 0 c -4.4 0 -8 -3.6 -8 -8 v -20 c 0 -4.4 3.6 -8 8 -8 l 0 0 c 4.4 0 8 3.6 8 8 V 739 Z"></path>
										</g>
									</g>

									<rect fill="#333333" stroke="#333333" stroke-linecap="round" stroke-linejoin="round" stroke-miterlimit="10" stroke-width="8" x="1092" y="679" width="238" height="21"></rect>
									<line fill="none" stroke="#333333" stroke-miterlimit="10" stroke-width="4" x1="1326" y1="694" x2="1096" y2="694"></line>
								</g>
								<g>
									<g>

										<path fill="#ffffff" stroke="#ffffff" stroke-linecap="round" stroke-linejoin="round" stroke-miterlimit="10" stroke-width="6" d="M 1330 823 c 0 4.4 -3.6 8 -8 8 l 0 0 c -4.4 0 -8 -3.6 -8 -8 v -20 c 0 -4.4 3.6 -8 8 -8 l 0 0 c 4.4 0 8 3.6 8 8 V 823 Z"></path>

										<path fill="#ffffff" stroke="#ffffff" stroke-linecap="round" stroke-linejoin="round" stroke-miterlimit="10" stroke-width="6" d="M 1108 823 c 0 4.4 -3.6 8 -8 8 l 0 0 c -4.4 0 -8 -3.6 -8 -8 v -20 c 0 -4.4 3.6 -8 8 -8 l 0 0 c 4.4 0 8 3.6 8 8 V 823 Z"></path>
										<g>

											<line fill="#333333" stroke="#333333" stroke-linecap="round" stroke-linejoin="round" stroke-miterlimit="10" stroke-width="8" x1="1248" y1="831" x2="1248" y2="844"></line>

											<path fill="#ffffff" stroke="#ffffff" stroke-linecap="round" stroke-linejoin="round" stroke-miterlimit="10" stroke-width="6" d="M 1256 823 c 0 4.4 -3.6 8 -8 8 l 0 0 c -4.4 0 -8 -3.6 -8 -8 v -20 c 0 -4.4 3.6 -8 8 -8 l 0 0 c 4.4 0 8 3.6 8 8 V 823 Z"></path>
										</g>
										<g>

											<line fill="#333333" stroke="#333333" stroke-linecap="round" stroke-linejoin="round" stroke-miterlimit="10" stroke-width="8" x1="1174" y1="831" x2="1174" y2="844"></line>

											<path fill="#eefaf9" stroke="#ffffff" stroke-linecap="round" stroke-linejoin="round" stroke-miterlimit="10" stroke-width="6" d="M 1182 823 c 0 4.4 -3.6 8 -8 8 l 0 0 c -4.4 0 -8 -3.6 -8 -8 v -20 c 0 -4.4 3.6 -8 8 -8 l 0 0 c 4.4 0 8 3.6 8 8 V 823 Z"></path>
										</g>
									</g>

									<rect fill="#333333" stroke="#333333" stroke-linecap="round" stroke-linejoin="round" stroke-miterlimit="10" stroke-width="8" x="1092" y="842" width="238" height="21"></rect>
									<line fill="none" stroke="#333333" stroke-miterlimit="10" stroke-width="4" x1="1326" y1="858" x2="1096" y2="858"></line>
								</g>
							</g>
							<g>

								<path fill="#333333" stroke="#333333" stroke-linecap="round" stroke-linejoin="round" stroke-miterlimit="10" stroke-width="6" d="M 1139 759.9 c 0 -6 -4.9 -10.9 -10.9 -10.9 h -5.1 c -6 0 -10.9 4.9 -10.9 10.9 v 22.1 c 0 6 4.9 10.9 10.9 10.9 h 5.1 c 6 0 10.9 -4.9 10.9 -10.9 V 759.9 Z"></path>
								<path fill="#333333" d="M 1116.5 786 h 18.9 c -1.4 2.4 -3.9 4 -6.9 4 h -5.1 C 1120.5 790 1117.9 788.4 1116.5 786 Z"></path>

								<path fill="#ffffff" stroke="#ffffff" stroke-linecap="round" stroke-linejoin="round" stroke-miterlimit="10" stroke-width="6" d="M 1118 781 h -55 v 0 c -6 0 -10.2 -4.4 -10.2 -10 c 0 -5.6 4.6 -10 10.3 -10 h -0.1 h 55 c 5.6 0 10.2 4.4 10.2 10 C 1128.2 776.6 1123.6 781 1118 781 Z"></path>
								<path fill="#ffffff" d="M 1056.7 774 h 67.8 c -1.1 2.4 -3.6 4 -6.5 4 h -54.4 c 0 0 -0.1 0 -0.1 0 C 1060.3 778 1057.9 776.4 1056.7 774 Z"></path>

								<circle fill="#333333" stroke="#333333" stroke-linecap="round" stroke-linejoin="round" stroke-miterlimit="10" stroke-width="6" cx="1063" cy="770.8" r="13.3"></circle>
								<path fill="#333333" d="M 1060.7 767.6 c 1.8 -1.3 4.3 -0.9 5.6 0.9 c 1.3 1.8 0.9 4.3 -0.9 5.6 c -1.8 1.3 -4.3 0.9 -5.6 -0.9 C 1058.5 771.4 1058.9 768.9 1060.7 767.6 Z"></path>
							</g>
						</g>
					</g>
					<g id="Kick" data-svg-origin="1035.7500610351562 1295" style="transform-origin: 0px 0px 0px; transform: matrix(1, 0, 0, 1, 0, 0);">
						<g id="Kick-Stand">
							<g>

								<path fill="#eefaf9" stroke="#333333" stroke-linecap="round" stroke-linejoin="round" stroke-miterlimit="10" stroke-width="6" d="M 815.3 1050.3 c 0.3 -5.6 5.3 -10 11 -9.7 c 5.6 0.3 10.3 5 10 10.7 l -2.7 58 l -21 -1 L 815.3 1050.3 Z"></path>

								<path fill="#ffffff" stroke="#ffffff" stroke-linecap="round" stroke-linejoin="round" stroke-miterlimit="10" stroke-width="6" d="M 828.6 1109.1 l -7.7 167.4 c -0.1 3.1 -2.6 5.5 -5.8 5.4 c -3.1 -0.1 -5.4 -2.8 -5.2 -5.9 l 7.7 -167.4 L 828.6 1109.1 Z"></path>

								<path fill="#333333" stroke="#333333" stroke-linecap="round" stroke-linejoin="round" stroke-miterlimit="10" stroke-width="6" d="M 803.4 1269 L 803.4 1269 l 7.3 -10.6 l 11 0.4 l 6.1 11.2 h 0 c 1.2 3 1.8 4.8 1.7 7.5 c -0.4 7.8 -7 13.9 -14.8 13.5 c -7.8 -0.4 -13.8 -7.2 -13.5 -15 C 801.4 1273.5 802.1 1271 803.4 1269 Z"></path>
							</g>
							<g>

								<path fill="#eefaf9" stroke="#333333" stroke-linecap="round" stroke-linejoin="round" stroke-miterlimit="10" stroke-width="6" d="M 1256.2 1050.3 c -0.3 -5.6 -5.3 -10 -11 -9.7 c -5.6 0.3 -10.3 5 -10 10.7 l 2.7 58 l 21 -1 L 1256.2 1050.3 Z"></path>

								<path fill="#ffffff" stroke="#ffffff" stroke-linecap="round" stroke-linejoin="round" stroke-miterlimit="10" stroke-width="6" d="M 1242.9 1109.1 l 7.7 167.4 c 0.1 3.1 2.6 5.5 5.8 5.4 c 3.1 -0.1 5.4 -2.8 5.2 -5.9 l -7.7 -167.4 L 1242.9 1109.1 Z"></path>

								<path fill="#333333" stroke="#333333" stroke-linecap="round" stroke-linejoin="round" stroke-miterlimit="10" stroke-width="6" d="M 1268.1 1269 L 1268.1 1269 l -7.3 -10.6 l -11 0.4 l -6.1 11.2 h 0 c -1.2 3 -1.8 4.8 -1.7 7.5 c 0.4 7.8 7 13.9 14.8 13.5 c 7.8 -0.4 13.8 -7.2 13.5 -15 C 1270.1 1273.5 1269.3 1271 1268.1 1269 Z"></path>
							</g>
						</g>
						<g id="Kick-Drum">

							<circle fill="#333333" stroke="#333333" stroke-linecap="round" stroke-linejoin="round" stroke-miterlimit="10" stroke-width="8" cx="1035.7" cy="1085" r="210"></circle>
							<circle id="Inner-Drum-Wobble" fill="none" cx="1035.7" cy="1085" r="201.2"></circle>

							<circle id="Inner-Drum" fill="#fdfffc" stroke="#333333" stroke-linecap="round" stroke-linejoin="round" stroke-miterlimit="10" stroke-width="8" cx="1035.7" cy="1085" r="192.6"></circle>
							
							
							<g>
								<g>
									<g>

										<path fill="#eefaf9" stroke="#ffffff" stroke-linecap="round" stroke-linejoin="round" stroke-miterlimit="10" stroke-width="8" d="M 821 1074.7 c -6 0 -10.5 4.7 -10.5 10.5 c 0 5.8 4.5 10.5 10.5 10.5 v 9.3 h 20 v -40 h -20 V 1074.7 Z"></path>
										<path fill="#333333" d="M 819.9 1085.3 c 0 1.1 0.9 2 2 2 c 1.1 0 2 -0.9 2 -2 c 0 -1.1 -0.9 -2 -2 -2 C 820.8 1083.3 819.9 1084.2 819.9 1085.3 Z"></path>
									</g>
									<line fill="none" stroke="#ffffff" stroke-miterlimit="10" stroke-width="4" x1="835" y1="1101" x2="835" y2="1069"></line>
								</g>
								<g>
									<g>

										<path fill="#eefaf9" stroke="#ffffff" stroke-linecap="round" stroke-linejoin="round" stroke-miterlimit="10" stroke-width="8" d="M 919.8 1265.1 c -3 5.2 -1.2 11.4 3.8 14.3 s 11.3 1.4 14.3 -3.8 l 8.1 4.7 l 10 -17.3 l -34.6 -20 l -10 17.3 L 919.8 1265.1 Z"></path>
										<path fill="#333333" d="M 928.1 1272 c 1 0.5 2.2 0.2 2.7 -0.7 c 0.6 -1 0.2 -2.2 -0.7 -2.7 c -1 -0.6 -2.2 -0.2 -2.7 0.7 C 926.8 1270.3 927.1 1271.5 928.1 1272 Z"></path>
									</g>
									<line fill="none" stroke="#ffffff" stroke-miterlimit="10" stroke-width="4" x1="949.7" y1="1266.2" x2="922" y2="1250.2"></line>
								</g>
								<g>
									<g>

										<path fill="#ffffff" stroke="#ffffff" stroke-linecap="round" stroke-linejoin="round" stroke-miterlimit="10" stroke-width="8" d="M 1133.8 1275.5 c 3 5.2 9.3 6.7 14.3 3.8 c 5 -2.9 6.8 -9.1 3.8 -14.3 l 8 -4.6 l -10 -17.3 l -34.6 20 l 10 17.3 L 1133.8 1275.5 Z"></path>
										<path fill="#333333" d="M 1143.9 1271.7 c 1 -0.6 1.3 -1.8 0.7 -2.7 c -0.6 -1 -1.8 -1.3 -2.7 -0.7 c -1 0.6 -1.3 1.8 -0.7 2.7 C 1141.8 1271.9 1143 1272.3 1143.9 1271.7 Z"></path>
									</g>

									<line fill="none" stroke="#ffffff" stroke-miterlimit="10" stroke-width="4" x1="1149.6" y1="1250.2" x2="1121.8" y2="1266.2"></line>
								</g>
								<g>
									<g>

										<path fill="#eefaf9" stroke="#ffffff" stroke-linecap="round" stroke-linejoin="round" stroke-miterlimit="10" stroke-width="8" d="M 1249 1095.3 c 6 0 10.5 -4.7 10.5 -10.5 c 0 -5.8 -4.5 -10.5 -10.5 -10.5 v -9.3 h -20 v 40 h 20 V 1095.3 Z"></path>
										<path fill="#333333" d="M 1251.6 1084.6 c 0 -1.1 -0.9 -2 -2 -2 c -1.1 0 -2 0.9 -2 2 c 0 1.1 0.9 2 2 2 C 1250.7 1086.6 1251.6 1085.7 1251.6 1084.6 Z"></path>
									</g>
									<line fill="none" stroke="#ffffff" stroke-miterlimit="10" stroke-width="4" x1="1235" y1="1069" x2="1235" y2="1101"></line>
								</g>
								<g>
									<g>

										<path fill="#ffffff" stroke="#ffffff" stroke-linecap="round" stroke-linejoin="round" stroke-miterlimit="10" stroke-width="8" d="M 1151.7 904.7 c 3 -5.2 1.2 -11.4 -3.8 -14.3 c -5 -2.9 -11.3 -1.4 -14.3 3.8 l -8 -4.6 l -10 17.3 l 34.6 20 l 10 -17.3 L 1151.7 904.7 Z"></path>
										<path fill="#333333" d="M 1143.4 897.9 c -1 -0.5 -2.2 -0.2 -2.7 0.7 c -0.6 1 -0.2 2.2 0.7 2.7 c 1 0.6 2.2 0.2 2.7 -0.7 C 1144.7 899.7 1144.3 898.4 1143.4 897.9 Z"></path>
									</g>
									<line fill="none" stroke="#ffffff" stroke-miterlimit="10" stroke-width="4" x1="1122" y1="903.8" x2="1149.7" y2="919.8"></line>
								</g>
								<g>
									<g>

										<path fill="#ffffff" stroke="#ffffff" stroke-linecap="round" stroke-linejoin="round" stroke-miterlimit="10" stroke-width="8" d="M 937.7 894.5 c -3 -5.2 -9.3 -6.7 -14.3 -3.8 s -6.8 9.1 -3.8 14.3 l -8.1 4.7 l 10 17.3 l 34.6 -20 l -10 -17.3 L 937.7 894.5 Z"></path>
										<path fill="#333333" d="M 927.5 898.2 c -0.9 0.6 -1.3 1.8 -0.7 2.7 c 0.6 1 1.8 1.3 2.7 0.7 c 1 -0.6 1.3 -1.8 0.7 -2.7 C 929.7 898 928.5 897.6 927.5 898.2 Z"></path>
									</g>
									<line fill="none" stroke="#ffffff" stroke-miterlimit="10" stroke-width="4" x1="921.8" y1="919.8" x2="949.6" y2="903.8"></line>
								</g>
							</g>
						</g>
					</g>
				</g>
				<g id="Crash">
					<g id="Crash-Stand-Top">

						<path fill="#ffffff" stroke="#ffffff" stroke-linecap="round" stroke-linejoin="round" stroke-miterlimit="10" stroke-width="6" d="M 558 649.3 l 20.3 -55.8 c 1.1 -2.9 -0.3 -6.1 -3.2 -7.2 c -2.9 -1.1 -6 0.5 -7.1 3.4 l -20.3 55.8 L 558 649.3 Z"></path>

						<path fill="#ffffff" stroke="#ffffff" stroke-linecap="round" stroke-linejoin="round" stroke-miterlimit="10" stroke-width="6" d="M 575.4 610.2 c 1.6 -4.3 -0.6 -9 -4.9 -10.6 l -0.5 -0.2 c -4.3 -1.6 -9 0.6 -10.6 4.9 l -65.2 179.3 l 16 5.8 L 575.4 610.2 Z"></path>

						<path fill="#333333" stroke="#333333" stroke-linecap="round" stroke-linejoin="round" stroke-miterlimit="10" stroke-width="6" d="M 539.1 645.7 c 0 0.1 -0.1 0.2 -0.1 0.2 l -0.2 0.5 c -1.6 4.3 0.7 9 4.9 10.6 l 9.9 3.6 c 4.3 1.6 9 -0.7 10.6 -4.9 l 0.2 -0.5 c 0 -0.1 0 -0.2 0.1 -0.2 L 539.1 645.7 Z"></path>

						<path fill="#5c5c5c" stroke="#333333" stroke-linecap="round" stroke-linejoin="round" stroke-miterlimit="10" stroke-width="6" d="M 575.7 623.9 c 0 -0.1 0.1 -0.2 0.1 -0.2 l 0.2 -0.5 c 1.6 -4.3 -0.6 -9 -4.9 -10.6 l -9.9 -3.6 c -4.3 -1.6 -9 0.6 -10.6 4.9 l -0.2 0.5 c 0 0.1 0 0.2 -0.1 0.2 L 575.7 623.9 Z"></path>
						<g id="Crash-Cymbol">

							<path fill="#fde74c" stroke="#fde74c" stroke-linecap="round" stroke-linejoin="round" stroke-miterlimit="10" stroke-width="6" d="M 691.9 684.6 l -48.7 -18.7 c -33.9 -13 -46.9 -22.8 -54.8 -31.5 c -3.3 -3.4 -9.8 -9.5 -16.9 -12.1 c -2.2 -0.8 -8.7 -3.2 -8.7 -3.2 s 0 0 -0.1 0 c -0.1 0 -0.1 0 -0.1 0 s -6.6 -2.4 -8.7 -3.2 c -7.1 -2.6 -16.1 -2.1 -20.7 -1.6 c -11.7 1.5 -28 0.7 -62.3 -11.1 l -49.3 -17 c -5.4 -2 -10.6 -0.3 -12.1 3.9 l -0.1 0.1 c -1.5 4.2 1.1 8.6 6.6 10.6 l 135.4 49.3 l 0.1 0 l 0.1 0 l 135.4 49.3 c 5.4 2 10.3 0.3 11.9 -3.9 l 0.1 -0.1 C 700.2 691.2 697.3 686.6 691.9 684.6 Z"></path>

							<line fill="none" stroke="#fef5b7" stroke-linecap="round" stroke-linejoin="round" stroke-miterlimit="10" stroke-width="4" x1="572.3" y1="630.1" x2="546.6" y2="620.8"></line>
						</g>
					</g>
					<g id="Crash-Stand">

						<rect fill="#ffffff" stroke="#ffffff" stroke-linecap="round" stroke-linejoin="round" stroke-miterlimit="10" stroke-width="6" x="493" y="787" width="17" height="409"></rect>
						<g>
							<g>
								<path fill="#ffffff" stroke="#ffffff" stroke-linecap="round" stroke-linejoin="round" stroke-miterlimit="10" stroke-width="6" d="M 574.8 1269 c -3.4 3.4 -8.8 3.3 -12.1 -0.1 l -66.7 -66.7 c -3.4 -3.4 -3.5 -8.7 -0.1 -12.1 l 0 0 c 3.4 -3.4 8.8 -3.3 12.1 0.1 l 66.7 66.7 C 578.1 1260.2 578.2 1265.6 574.8 1269 L 574.8 1269 Z"></path>
								<line fill="none" stroke="#ffffff" stroke-miterlimit="10" stroke-width="4" x1="566.9" y1="1265.8" x2="499.7" y2="1198.6"></line>

								<path fill="#333333" stroke="#333333" stroke-linecap="round" stroke-linejoin="round" stroke-miterlimit="10" stroke-width="6" d="M 575.2 1257.4 l -12 12 c 0 0 6.4 10.8 8 12.4 c 4.7 4.7 11.9 4.3 16.6 -0.4 c 4.7 -4.7 5.1 -11.9 0.5 -16.6 C 586.8 1263.4 575.2 1257.4 575.2 1257.4 Z"></path>
							</g>
							<g>

								<path fill="#ffffff" stroke="#ffffff" stroke-linecap="round" stroke-linejoin="round" stroke-miterlimit="10" stroke-width="6" d="M 429 1268.7 c -3.4 -3.4 -3.3 -8.8 0.1 -12.1 l 66.7 -66.7 c 3.4 -3.4 8.7 -3.5 12.1 -0.1 l 0 0 c 3.4 3.4 3.3 8.8 -0.1 12.1 l -66.7 66.7 C 437.7 1272 432.3 1272.1 429 1268.7 L 429 1268.7 Z"></path>
								<line fill="none" stroke="#ffffff" stroke-miterlimit="10" stroke-width="4" x1="437.2" y1="1265.8" x2="502" y2="1200.9"></line>

								<path fill="#333333" stroke="#333333" stroke-linecap="round" stroke-linejoin="round" stroke-miterlimit="10" stroke-width="6" d="M 440.5 1269.1 l -12 -12 c 0 0 -10.8 6.4 -12.4 8 c -4.7 4.7 -4.3 11.9 0.4 16.6 c 4.7 4.7 11.9 5.1 16.6 0.5 C 434.5 1280.7 440.5 1269.1 440.5 1269.1 Z"></path>
							</g>
							<g>

								<path fill="#333333" stroke="#333333" stroke-linecap="round" stroke-linejoin="round" stroke-miterlimit="10" stroke-width="6" d="M 488.6 1195.8 c 0 -7.5 6 -13.5 13.5 -13.5 s 13.5 6 13.5 13.5 c 0 7.5 -6 13.5 -13.5 13.5 S 488.6 1203.2 488.6 1195.8 Z"></path>
								<path fill="#333333" d="M 504.5 1192.5 c -1.8 -1.3 -4.3 -0.9 -5.6 0.9 c -1.3 1.8 -0.9 4.3 0.9 5.6 c 1.8 1.3 4.3 0.9 5.6 -0.9 C 506.7 1196.3 506.3 1193.8 504.5 1192.5 Z"></path>
							</g>
						</g>
						<g>

							<circle fill="#ffffff" stroke="#ffffff" stroke-linecap="round" stroke-linejoin="round" stroke-miterlimit="10" stroke-width="6" cx="517.7" cy="994.5" r="10"></circle>

							<path fill="#333333" stroke="#333333" stroke-linecap="round" stroke-linejoin="round" stroke-miterlimit="10" stroke-width="6" d="M 515 1006.1 c 0 6 -4.9 10.9 -10.9 10.9 h -5.1 c -6 0 -10.9 -4.9 -10.9 -10.9 v -22.1 c 0 -6 4.9 -10.9 10.9 -10.9 h 5.1 c 6 0 10.9 4.9 10.9 10.9 V 1006.1 Z"></path>
						</g>
						<g>

							<path fill="#333333" stroke="#333333" stroke-linecap="round" stroke-linejoin="round" stroke-miterlimit="10" stroke-width="6" d="M 488.4 786.8 c 0 -7.5 6 -13.5 13.5 -13.5 s 13.5 6 13.5 13.5 c 0 7.5 -6 13.5 -13.5 13.5 S 488.4 794.2 488.4 786.8 Z"></path>
							<path fill="#333333" d="M 504.3 783.5 c -1.8 -1.3 -4.3 -0.9 -5.6 0.9 c -1.3 1.8 -0.9 4.3 0.9 5.6 c 1.8 1.3 4.3 0.9 5.6 -0.9 C 506.5 787.3 506.1 784.8 504.3 783.5 Z"></path>
						</g>
					</g>
				</g>
			</g>
			<g class="" id="All-Keys" opacity="0.9">
				<g id="Key-66">
					<path fill="none" stroke="#fdfffc" stroke-miterlimit="10" stroke-width="9" d="M 1103.5 1442.5 c 0 6.6 -5.4 12 -12 12 h -107 c -6.6 0 -12 -5.4 -12 -12 v -107 c 0 -6.6 5.4 -12 12 -12 h 107 c 6.6 0 12 5.4 12 12 V 1442.5 Z"></path>
					<text font-family="'Montserrat'" font-size="76.2579" fill="#fdfffc" transform="matrix(1 0 0 1 1011.95 1411.71)">B</text>
				</g>
				<g id="Key-74" data-svg-origin="1486 1389" style="transform-origin: 0px 0px 0px; transform: matrix(1, 0, 0, 1, 0, 0);">
					<path fill="none" stroke="#fdfffc" stroke-miterlimit="10" stroke-width="9" d="M 1551.5 1442.5 c 0 6.6 -5.4 12 -12 12 h -107 c -6.6 0 -12 -5.4 -12 -12 v -107 c 0 -6.6 5.4 -12 12 -12 h 107 c 6.6 0 12 5.4 12 12 V 1442.5 Z"></path>
					<text font-family="'Montserrat'" font-size="76.2579" fill="#fdfffc" transform="matrix(1 0 0 1 1466.36 1411.71)">J</text>
				</g>
				<g id="Key-72">
					<path fill="none" stroke="#fdfffc" stroke-miterlimit="10" stroke-width="9" d="M 1393.5 1442.5 c 0 6.6 -5.4 12 -12 12 h -107 c -6.6 0 -12 -5.4 -12 -12 v -107 c 0 -6.6 5.4 -12 12 -12 h 107 c 6.6 0 12 5.4 12 12 V 1442.5 Z"></path>
					<text font-family="'Montserrat'" font-size="76.2579" fill="#fdfffc" transform="matrix(1 0 0 1 1300.07 1411.71)">H</text>
				</g>
				<g id="Key-71">
					<path fill="none" stroke="#fdfffc" stroke-miterlimit="10" stroke-width="9" d="M 751.5 1442.5 c 0 6.6 -5.4 12 -12 12 h -107 c -6.6 0 -12 -5.4 -12 -12 v -107 c 0 -6.6 5.4 -12 12 -12 h 107 c 6.6 0 12 5.4 12 12 V 1442.5 Z"></path>
					<text font-family="'Montserrat'" font-size="76.2579" fill="#fdfffc" transform="matrix(1 0 0 1 658.169 1411.56)">G</text>
				</g>
				<g id="Key-70">
					<path fill="none" stroke="#fdfffc" stroke-miterlimit="10" stroke-width="9" d="M 564.5 1442.5 c 0 6.6 -5.4 12 -12 12 h -107 c -6.6 0 -12 -5.4 -12 -12 v -107 c 0 -6.6 5.4 -12 12 -12 h 107 c 6.6 0 12 5.4 12 12 V 1442.5 Z"></path>
					<text font-family="'Montserrat'" font-size="76.2579" fill="#fdfffc" transform="matrix(1 0 0 1 477.337 1411.71)">F</text>
				</g>
				<g id="Key-89" data-svg-origin="1213 585" style="transform-origin: 0px 0px 0px; transform: matrix(1, 0, 0, 1, 0, 0);">
					<path fill="none" stroke="#fdfffc" stroke-miterlimit="10" stroke-width="9" d="M 1278.5 638.5 c 0 6.6 -5.4 12 -12 12 h -107 c -6.6 0 -12 -5.4 -12 -12 v -107 c 0 -6.6 5.4 -12 12 -12 h 107 c 6.6 0 12 5.4 12 12 V 638.5 Z"></path>
					<text font-family="'Montserrat'" font-size="76.2579" fill="#fdfffc" transform="matrix(1 0 0 1 1190.57 607.712)">Y</text>
				</g>
				<g id="Key-84" data-svg-origin="863 585" style="transform-origin: 0px 0px 0px; transform: matrix(1, 0, 0, 1, 0, 0);">
					<path fill="none" stroke="#fdfffc" stroke-miterlimit="10" stroke-width="9" d="M 928.5 638.5 c 0 6.6 -5.4 12 -12 12 h -107 c -6.6 0 -12 -5.4 -12 -12 v -107 c 0 -6.6 5.4 -12 12 -12 h 107 c 6.6 0 12 5.4 12 12 V 638.5 Z"></path>
					<text font-family="'Montserrat'" font-size="76.2579" fill="#fdfffc" transform="matrix(1 0 0 1 841.337 607.712)">T</text>
				</g>
			</g>
		</g>
	</svg>