<?xml version="1.0" encoding="iso-8859-1"?>
<!-- Generator: Adobe Illustrator 18.0.0, SVG Export Plug-In . SVG Version: 6.00 Build 0)  -->
<!DOCTYPE svg PUBLIC "-//W3C//DTD SVG 1.1//EN" "http://www.w3.org/Graphics/SVG/1.1/DTD/svg11.dtd">
<svg version="1.1" id="Capa_1" xmlns="http://www.w3.org/2000/svg" xmlns:xlink="http://www.w3.org/1999/xlink" x="0px" y="0px"
	 viewBox="0 0 297 297" style="enable-background:new 0 0 297 297;" xml:space="preserve">
<g>
	<polygon style="fill:#AEC1CF;" points="224.895,31.305 73.898,31.305 51.315,157 242.961,157 	"/>
	<polygon style="fill:#8CA1AD;" points="51.315,157 48.589,172.177 245.143,172.177 242.961,157 	"/>
	<polygon style="opacity:0.32;fill:#AEC1CF;" points="224.895,31.305 204.565,31.305 222.143,172.177 245.143,172.177 	"/>
	<path style="fill:#5D7486;" d="M145.966,182.3l-0.612-0.526c-2.514-2.159-2.801-5.947-0.641-8.461L256.481,43.211
		c2.159-2.514,5.947-2.801,8.461-0.641l0.612,0.526c2.514,2.159,2.801,5.947,0.641,8.461L154.427,181.658
		C152.268,184.172,148.48,184.459,145.966,182.3z"/>
	<circle style="fill:#32373B;" cx="241.399" cy="70.594" r="14.184"/>
	<rect x="132.528" y="31.305" style="fill:#32373B;" width="34.862" height="140.872"/>
	<path style="fill:#3C5768;" d="M222.41,14.018C221.254,5.973,214.361,0,206.234,0H93.191C85.28,0,78.505,5.666,77.106,13.453
		l-3.208,17.852h150.996L222.41,14.018z"/>
	<path style="opacity:0.32;fill:#3C5768;" d="M186.793,6.188c8.127,0,15.02,5.973,16.176,14.018l1.595,11.1h20.33l-2.485-17.288
		C221.254,5.973,214.361,0,206.234,0H93.191c-5.129,0-9.769,2.391-12.788,6.188H186.793z"/>
	<path style="fill:#3C5768;" d="M260.401,278.332l-15.258-106.155H48.589l-18.971,105.59C27.817,287.789,35.52,297,45.703,297
		h198.522C254.175,297,261.816,288.182,260.401,278.332z"/>
	<path style="opacity:0.32;fill:#3C5768;" d="M260.401,278.332l-15.258-106.155h-22.679l13.514,94.019
		c1.111,7.731-4.886,14.652-12.697,14.652H29.379C29.466,289.598,36.577,297,45.703,297h198.522
		C254.175,297,261.816,288.182,260.401,278.332z"/>
</g>
<g>
</g>
<g>
</g>
<g>
</g>
<g>
</g>
<g>
</g>
<g>
</g>
<g>
</g>
<g>
</g>
<g>
</g>
<g>
</g>
<g>
</g>
<g>
</g>
<g>
</g>
<g>
</g>
<g>
</g>
</svg>
