<?xml version="1.0" encoding="iso-8859-1"?>
<!-- Generator: Adobe Illustrator 19.0.0, SVG Export Plug-In . SVG Version: 6.00 Build 0)  -->
<svg version="1.1" id="Layer_1" xmlns="http://www.w3.org/2000/svg" xmlns:xlink="http://www.w3.org/1999/xlink" x="0px" y="0px"
	 viewBox="0 0 512 512" style="enable-background:new 0 0 512 512;" xml:space="preserve">
<g>
	<path style="fill:#8697CB;" d="M256,8.828c-82.882,0-150.069,67.187-150.069,150.069h300.138
		C406.069,76.014,338.882,8.828,256,8.828"/>
	<g>
		<path style="fill:#434C6D;" d="M176.552,123.586c-4.873,0-8.828-3.946-8.828-8.828c0-34.066,27.719-61.793,61.793-61.793
			c4.873,0,8.828,3.946,8.828,8.828s-3.955,8.828-8.828,8.828c-24.338,0-44.138,19.8-44.138,44.138
			C185.379,119.64,181.425,123.586,176.552,123.586"/>
		<path style="fill:#434C6D;" d="M476.69,238.345H35.31l0,0c0-48.755,39.521-88.276,88.276-88.276h264.828
			C437.169,150.069,476.69,189.59,476.69,238.345L476.69,238.345z"/>
		<path style="fill:#434C6D;" d="M35.31,291.31H476.69l0,0c0,48.755-39.521,88.276-88.276,88.276H123.586
			C74.831,379.586,35.31,340.065,35.31,291.31L35.31,291.31z"/>
	</g>
	<path style="fill:#8697CB;" d="M485.517,291.31H26.483C11.917,291.31,0,279.393,0,264.828c0-14.566,11.917-26.483,26.483-26.483
		h459.034c14.566,0,26.483,11.917,26.483,26.483C512,279.393,500.083,291.31,485.517,291.31"/>
	<g>
		<path style="fill:#F3D55B;" d="M264.828,450.207c0,4.873-3.955,8.828-8.828,8.828s-8.828-3.955-8.828-8.828
			c0-4.873,3.955-8.828,8.828-8.828S264.828,445.334,264.828,450.207"/>
		<path style="fill:#F3D55B;" d="M256,423.724c-4.873,0-8.828-3.946-8.828-8.828v-8.828c0-4.882,3.955-8.828,8.828-8.828
			s8.828,3.946,8.828,8.828v8.828C264.828,419.778,260.873,423.724,256,423.724"/>
		<path style="fill:#F3D55B;" d="M256,503.172c-4.873,0-8.828-3.946-8.828-8.828v-8.828c0-4.882,3.955-8.828,8.828-8.828
			s8.828,3.946,8.828,8.828v8.828C264.828,499.227,260.873,503.172,256,503.172"/>
		<path style="fill:#F3D55B;" d="M308.966,432.552c-4.873,0-8.828-3.946-8.828-8.828v-8.828c0-4.882,3.955-8.828,8.828-8.828
			s8.828,3.946,8.828,8.828v8.828C317.793,428.606,313.838,432.552,308.966,432.552"/>
		<path style="fill:#F3D55B;" d="M308.966,485.517c-4.873,0-8.828-3.946-8.828-8.828v-17.655c0-4.882,3.955-8.828,8.828-8.828
			s8.828,3.946,8.828,8.828v17.655C317.793,481.571,313.838,485.517,308.966,485.517"/>
		<path style="fill:#F3D55B;" d="M203.034,494.345c-4.873,0-8.828-3.946-8.828-8.828v-17.655c0-4.882,3.955-8.828,8.828-8.828
			c4.873,0,8.828,3.946,8.828,8.828v17.655C211.862,490.399,207.907,494.345,203.034,494.345"/>
		<path style="fill:#F3D55B;" d="M203.034,441.379c-4.873,0-8.828-3.946-8.828-8.828v-17.655c0-4.882,3.955-8.828,8.828-8.828
			c4.873,0,8.828,3.946,8.828,8.828v17.655C211.862,437.433,207.907,441.379,203.034,441.379"/>
	</g>
	<g>
		<path style="fill:#FFFFFF;" d="M132.414,335.448c0,4.873-3.955,8.828-8.828,8.828s-8.828-3.955-8.828-8.828
			s3.955-8.828,8.828-8.828S132.414,330.575,132.414,335.448"/>
		<path style="fill:#FFFFFF;" d="M176.552,335.448c0,4.873-3.955,8.828-8.828,8.828s-8.828-3.955-8.828-8.828
			s3.955-8.828,8.828-8.828S176.552,330.575,176.552,335.448"/>
		<path style="fill:#FFFFFF;" d="M220.69,335.448c0,4.873-3.955,8.828-8.828,8.828c-4.873,0-8.828-3.955-8.828-8.828
			s3.955-8.828,8.828-8.828C216.735,326.621,220.69,330.575,220.69,335.448"/>
		<path style="fill:#FFFFFF;" d="M264.828,335.448c0,4.873-3.955,8.828-8.828,8.828s-8.828-3.955-8.828-8.828
			s3.955-8.828,8.828-8.828S264.828,330.575,264.828,335.448"/>
		<path style="fill:#FFFFFF;" d="M308.966,335.448c0,4.873-3.955,8.828-8.828,8.828c-4.873,0-8.828-3.955-8.828-8.828
			s3.955-8.828,8.828-8.828C305.011,326.621,308.966,330.575,308.966,335.448"/>
		<path style="fill:#FFFFFF;" d="M353.103,335.448c0,4.873-3.955,8.828-8.828,8.828c-4.873,0-8.828-3.955-8.828-8.828
			s3.955-8.828,8.828-8.828C349.149,326.621,353.103,330.575,353.103,335.448"/>
		<path style="fill:#FFFFFF;" d="M397.241,335.448c0,4.873-3.955,8.828-8.828,8.828s-8.828-3.955-8.828-8.828
			s3.955-8.828,8.828-8.828S397.241,330.575,397.241,335.448"/>
		<path style="fill:#FFFFFF;" d="M132.414,203.034c0,4.873-3.955,8.828-8.828,8.828s-8.828-3.955-8.828-8.828
			c0-4.873,3.955-8.828,8.828-8.828S132.414,198.162,132.414,203.034"/>
		<path style="fill:#FFFFFF;" d="M176.552,203.034c0,4.873-3.955,8.828-8.828,8.828s-8.828-3.955-8.828-8.828
			c0-4.873,3.955-8.828,8.828-8.828S176.552,198.162,176.552,203.034"/>
		<path style="fill:#FFFFFF;" d="M220.69,203.034c0,4.873-3.955,8.828-8.828,8.828c-4.873,0-8.828-3.955-8.828-8.828
			c0-4.873,3.955-8.828,8.828-8.828C216.735,194.207,220.69,198.162,220.69,203.034"/>
		<path style="fill:#FFFFFF;" d="M264.828,203.034c0,4.873-3.955,8.828-8.828,8.828s-8.828-3.955-8.828-8.828
			c0-4.873,3.955-8.828,8.828-8.828S264.828,198.162,264.828,203.034"/>
		<path style="fill:#FFFFFF;" d="M308.966,203.034c0,4.873-3.955,8.828-8.828,8.828c-4.873,0-8.828-3.955-8.828-8.828
			c0-4.873,3.955-8.828,8.828-8.828C305.011,194.207,308.966,198.162,308.966,203.034"/>
		<path style="fill:#FFFFFF;" d="M353.103,203.034c0,4.873-3.955,8.828-8.828,8.828c-4.873,0-8.828-3.955-8.828-8.828
			c0-4.873,3.955-8.828,8.828-8.828C349.149,194.207,353.103,198.162,353.103,203.034"/>
		<path style="fill:#FFFFFF;" d="M397.241,203.034c0,4.873-3.955,8.828-8.828,8.828s-8.828-3.955-8.828-8.828
			c0-4.873,3.955-8.828,8.828-8.828S397.241,198.162,397.241,203.034"/>
	</g>
</g>
<g>
</g>
<g>
</g>
<g>
</g>
<g>
</g>
<g>
</g>
<g>
</g>
<g>
</g>
<g>
</g>
<g>
</g>
<g>
</g>
<g>
</g>
<g>
</g>
<g>
</g>
<g>
</g>
<g>
</g>
</svg>
